<svg width="175" height="110" viewBox="0 0 175 110" fill="none" xmlns="http://www.w3.org/2000/svg">
<path d="M75.5527 8.29162C75.6941 8.15844 75.8608 8.05483 76.0428 7.98688C76.2248 7.91892 76.4186 7.88799 76.6127 7.89588C76.8069 7.90378 76.9975 7.95034 77.1734 8.03286C77.3493 8.11537 77.507 8.23217 77.6372 8.3764L89.6113 21.8159L87.4312 23.7584L75.457 10.3189C75.207 10.0345 75.0771 9.66415 75.095 9.28592C75.1128 8.90768 75.2769 8.55117 75.5527 8.29162Z" fill="#404040"/>
<path d="M99.18 8.26054C99.4691 8.51813 99.644 8.88001 99.6663 9.26659C99.6886 9.65316 99.5564 10.0328 99.2988 10.3219L87.3247 23.7614L85.1445 21.8189L97.1186 8.3794C97.3762 8.09029 97.7381 7.91534 98.1247 7.89305C98.5113 7.87076 98.8909 8.00295 99.18 8.26054V8.26054Z" fill="#404040"/>
<path d="M118.85 17.6201H64.77V26.1001H118.85V17.6201Z" fill="#212121"/>
<path d="M111.63 17.6201H63.13V26.1001H111.63V17.6201Z" fill="#404040"/>
<path d="M143.11 110H164.69V96.09H143.11V110Z" fill="#404040"/>
<path d="M154.24 110H164.69V96.09H154.24V110Z" fill="#161616"/>
<path d="M27.1 110H48.68V96.09H27.1V110Z" fill="#404040"/>
<path d="M38.23 110H48.68V96.09H38.23V110Z" fill="#212121"/>
<path d="M175 100.97H20.52V23.28H154.24H175V100.97Z" fill="#3F3F3F"/>
<path d="M154.25 23.28H20.52V100.97H154.25V23.28Z" fill="#565656"/>
<path d="M143.53 29.1399H31.23C28.7171 29.1399 26.68 31.177 26.68 33.6899V85.5899C26.68 88.1028 28.7171 90.1399 31.23 90.1399H143.53C146.043 90.1399 148.08 88.1028 148.08 85.5899V33.6899C148.08 31.177 146.043 29.1399 143.53 29.1399Z" fill="#121212"/>
<path d="M141.56 95.9299C142.322 95.9299 142.94 95.3121 142.94 94.5499C142.94 93.7878 142.322 93.1699 141.56 93.1699C140.798 93.1699 140.18 93.7878 140.18 94.5499C140.18 95.3121 140.798 95.9299 141.56 95.9299Z" fill="#404040"/>
<path d="M136.89 95.9299C137.652 95.9299 138.27 95.3121 138.27 94.5499C138.27 93.7878 137.652 93.1699 136.89 93.1699C136.128 93.1699 135.51 93.7878 135.51 94.5499C135.51 95.3121 136.128 95.9299 136.89 95.9299Z" fill="#404040"/>
<path d="M132.21 95.9299C132.972 95.9299 133.59 95.3121 133.59 94.5499C133.59 93.7878 132.972 93.1699 132.21 93.1699C131.448 93.1699 130.83 93.7878 130.83 94.5499C130.83 95.3121 131.448 95.9299 132.21 95.9299Z" fill="#404040"/>
<path d="M33.3 5.83008H20.47V46.3601H33.3V5.83008Z" fill="#8D8D8D"/>
<path d="M47.16 32.5099V19.6799L6.63 19.6799V32.5099H47.16Z" fill="#8D8D8D"/>
<path d="M26.68 5.83008H13.85V46.3601H26.68V5.83008Z" fill="#ACACAC"/>
<path d="M40.54 32.5099V19.6799L0.0100098 19.6799V32.5099H40.54Z" fill="#ACACAC"/>
<path d="M99.17 60.54L79.42 49.27V71.81L99.17 60.54Z" fill="#ACACAC"/>
</svg>